<?xml version="1.0" encoding="UTF-8" standalone="no"?>
<!-- Created with Inkscape (http://www.inkscape.org/) -->

<svg
   width="9.9700899mm"
   height="10.269974mm"
   viewBox="0 0 9.9700899 10.269974"
   version="1.1"
   id="svg1164"
   inkscape:version="1.1.1 (3bf5ae0d25, 2021-09-20)"
   sodipodi:docname="logo-tree.svg"
   inkscape:export-filename="C:\Users\Admin\Desktop\logo-tree.png"
   inkscape:export-xdpi="34.625214"
   inkscape:export-ydpi="34.625214"
   xmlns:inkscape="http://www.inkscape.org/namespaces/inkscape"
   xmlns:sodipodi="http://sodipodi.sourceforge.net/DTD/sodipodi-0.dtd"
   xmlns="http://www.w3.org/2000/svg"
   xmlns:svg="http://www.w3.org/2000/svg">
  <sodipodi:namedview
     id="namedview1166"
     pagecolor="#ffffff"
     bordercolor="#666666"
     borderopacity="1.0"
     inkscape:pageshadow="2"
     inkscape:pageopacity="0.0"
     inkscape:pagecheckerboard="0"
     inkscape:document-units="mm"
     showgrid="false"
     fit-margin-top="0"
     fit-margin-left="0"
     fit-margin-right="0"
     fit-margin-bottom="0"
     inkscape:zoom="3.0003928"
     inkscape:cx="13.831522"
     inkscape:cy="-41.161277"
     inkscape:window-width="1920"
     inkscape:window-height="1027"
     inkscape:window-x="1072"
     inkscape:window-y="409"
     inkscape:window-maximized="1"
     inkscape:current-layer="layer1" />
  <defs
     id="defs1161" />
  <g
     inkscape:label="Layer 1"
     inkscape:groupmode="layer"
     id="layer1"
     transform="translate(-24.468042,-6.1524237)">
    <path
       style="display:inline;fill:none;stroke:#2167ba;stroke-width:0.44;stroke-linecap:butt;stroke-linejoin:miter;stroke-miterlimit:4;stroke-dasharray:none;stroke-opacity:1"
       d="M 29.263212,16.336491 V 8.8570397"
       id="path177120" />
    <path
       style="display:inline;fill:#2167ba;fill-opacity:1;stroke:none;stroke-width:0.3;stroke-linecap:butt;stroke-linejoin:miter;stroke-miterlimit:10;stroke-dasharray:none;stroke-opacity:1"
       d="m 28.810952,11.950646 c 0.29564,-0.0023 0.60753,-0.0035 0.87794,-0.0035 0.0127,0.368017 0.13253,2.88864 0.27904,3.85517 0.0397,0.262266 0.15084,0.441686 0.0916,0.565376 -0.18981,0.06574 -1.62077,0.108217 -1.74404,-0.09109 0.19649,-1.401479 0.40517,-2.91813 0.49547,-4.32601 z"
       id="path177122"
       sodipodi:nodetypes="ccscccc"
       inkscape:transform-center-x="-0.019415044"
       inkscape:transform-center-y="-2.2615964" />
    <path
       style="display:inline;fill:none;stroke:#2167ba;stroke-width:0.4;stroke-linecap:butt;stroke-linejoin:miter;stroke-miterlimit:4;stroke-dasharray:none;stroke-opacity:1"
       d="m 29.452802,12.235736 c 0,-0.968057 0.79358,-0.696984 2.26464,-0.751948"
       id="path177124"
       sodipodi:nodetypes="cc" />
    <path
       style="display:inline;fill:none;stroke:#2167ba;stroke-width:0.4;stroke-linecap:butt;stroke-linejoin:miter;stroke-miterlimit:4;stroke-dasharray:none;stroke-opacity:1"
       d="m 29.009852,11.973563 c 0,-0.730363 -0.80846,-1.02639 -1.97342,-1.736349"
       id="path177126"
       sodipodi:nodetypes="cc" />
    <ellipse
       style="display:inline;fill:#f0f0f0;fill-opacity:1;stroke:#2167ba;stroke-width:0.2;stroke-linecap:round;stroke-linejoin:round;stroke-miterlimit:4;stroke-dasharray:none;stroke-opacity:1;paint-order:markers fill stroke"
       id="ellipse177128"
       cx="27.036434"
       cy="10.237224"
       rx="0.50170916"
       ry="0.49862999" />
    <ellipse
       style="display:inline;fill:#f0f0f0;fill-opacity:1;stroke:#2167ba;stroke-width:0.2;stroke-linecap:round;stroke-linejoin:round;stroke-miterlimit:4;stroke-dasharray:none;stroke-opacity:1;paint-order:markers fill stroke"
       id="ellipse177130"
       cy="8.8570433"
       cx="29.263203"
       rx="0.50170916"
       ry="0.49862999" />
    <ellipse
       style="display:inline;fill:#f0f0f0;fill-opacity:1;stroke:#2167ba;stroke-width:0.2;stroke-linecap:round;stroke-linejoin:round;stroke-miterlimit:4;stroke-dasharray:none;stroke-opacity:1;paint-order:markers fill stroke"
       id="ellipse177132"
       cy="11.483798"
       cx="31.717449"
       rx="0.50170916"
       ry="0.49862999" />
    <path
       id="path177134"
       style="display:inline;fill:none;fill-opacity:0;stroke:#2167ba;stroke-width:0.4;stroke-linecap:round;stroke-linejoin:round;stroke-miterlimit:4;stroke-dasharray:none;stroke-opacity:1;paint-order:markers fill stroke"
       d="m 30.315712,13.328873 c 0.43538,0.209639 0.69114,0.309338 1.38978,0.310333 1.39873,1.1e-5 2.53263,-1.060395 2.53264,-2.368483 -1e-5,-1.3080783 -1.13391,-2.3684843 -2.53264,-2.3684723 -0.0249,5.55e-4 -0.0499,0.0012 -0.0748,0.0023 0.0434,-0.161989 0.0655,-0.328318 0.0659,-0.495307 -10e-6,-1.135949 -0.98512,-2.056797 -2.20032,-2.05682 v 0 c -0.91575,3.7e-4 -1.73551,0.530874 -2.05824,1.331978 -0.0789,-0.0069 -0.1581,-0.01042 -0.23736,-0.01042 -1.39872,-1.2e-5 -2.53262,1.060395 -2.53263,2.3684833 10e-6,1.308078 1.13391,2.357489 2.53263,2.445416 0.35406,7.52e-4 0.61822,-0.01389 0.87314,-0.09734"
       sodipodi:nodetypes="ccccccssccccc" />
  </g>
</svg>
